<svg width="510" height="259" viewBox="0 0 510 259" fill="none" xmlns="http://www.w3.org/2000/svg">
<path fill-rule="evenodd" clip-rule="evenodd" d="M452.554 46.1377C452.147 64.319 465.056 72.8947 465.056 72.8947C465.056 72.8947 478.567 63.0173 478.96 45.3016C479.361 27.5546 464.512 17.1407 464.512 17.1407C464.512 17.1407 452.95 27.9536 452.554 46.1377ZM428.214 89.3701C433.551 106.263 449.256 111.867 449.256 111.867C449.256 111.867 459.274 99.9369 453.812 82.5968C448.327 65.2615 434.239 58.2247 434.239 58.2247C434.239 58.2247 422.888 72.4795 428.214 89.3701ZM481.386 80.9453C471.009 95.8746 477.012 110.242 477.012 110.242C477.012 110.242 493.686 109.536 503.778 94.9664C513.901 80.4048 507.326 63.4479 507.326 63.4479C507.326 63.4479 491.756 66.0029 481.386 80.9453ZM442.52 130.498C445.685 148.408 434.208 158.942 434.208 158.942C434.208 158.942 419.355 151.32 416.265 133.878C413.211 116.423 426.299 103.773 426.299 103.773C426.299 103.773 439.352 112.6 442.52 130.498ZM416.431 161.777C414.952 143.627 402.796 133.61 402.796 133.61C402.796 133.61 388.576 144.974 390.017 162.644C391.457 180.315 405.499 189.306 405.499 189.306C405.499 189.306 417.902 179.914 416.431 161.777ZM367.905 217.569C367.905 217.569 357.029 204.89 360.715 187.531C364.41 170.175 381.289 163.401 381.289 163.401C381.289 163.401 390.035 176.526 386.26 194.341C382.475 212.154 367.905 217.569 367.905 217.569ZM467.289 146.531C467.289 146.531 465.793 131.013 480.06 119.808C494.361 108.6 509.967 110.759 509.967 110.759C509.967 110.759 511.281 128.943 497.345 139.868C483.406 150.804 467.289 146.531 467.289 146.531ZM463.914 157.358C447.515 165.121 445.546 180.593 445.546 180.593C445.546 180.593 460.322 188.34 476.305 180.801C492.288 173.261 495.036 155.216 495.036 155.216C495.036 155.216 480.318 149.619 463.914 157.358ZM419.353 206.56C419.353 206.56 425.884 192.388 443.833 189.99C461.806 187.587 474.117 197.399 474.117 197.399C474.117 197.399 466.064 213.767 448.574 216.109C431.071 218.459 419.353 206.56 419.353 206.56ZM437.281 228.245C437.281 228.245 426.191 217.028 408.094 217.241C390.005 217.468 381.868 230.751 381.868 230.751C381.868 230.751 392.076 243.978 409.714 243.776C427.367 243.522 437.281 228.245 437.281 228.245ZM460.586 82.6003L469.081 80.9098C469.254 81.8388 485.707 174.391 352.617 238.399L348.924 230.583C475.608 169.63 461.266 86.1122 460.586 82.6003ZM28.6158 81.6765C38.9929 96.6057 32.9903 110.973 32.9903 110.973C32.9903 110.973 16.3165 110.267 6.22456 95.6975C-3.89843 81.1359 2.67661 64.1791 2.67661 64.1791C2.67661 64.1791 18.2464 66.734 28.6158 81.6765ZM60.7464 112.598C60.7464 112.598 76.4512 106.994 81.7881 90.1011C87.1146 73.2105 75.763 58.9558 75.763 58.9558C75.763 58.9558 61.6751 65.9925 56.1901 83.3278C50.7286 100.668 60.7464 112.598 60.7464 112.598ZM75.7939 159.673C75.7939 159.673 64.3175 149.139 67.4825 131.229C70.6504 113.331 83.7032 104.504 83.7032 104.504C83.7032 104.504 96.7908 117.154 93.7372 134.609C90.647 152.051 75.7939 159.673 75.7939 159.673ZM107.208 134.341C107.208 134.341 95.0518 144.358 93.5731 162.508C92.1019 180.645 104.505 190.037 104.505 190.037C104.505 190.037 118.547 181.046 119.988 163.375C121.428 145.705 107.208 134.341 107.208 134.341ZM149.288 188.262C152.973 205.621 142.097 218.3 142.097 218.3C142.097 218.3 127.527 212.885 123.742 195.072C119.967 177.257 128.714 164.132 128.714 164.132C128.714 164.132 145.592 170.906 149.288 188.262ZM44.9445 73.6257C44.9445 73.6257 57.8535 65.05 57.4465 46.8687C57.05 28.6847 45.4878 17.8718 45.4878 17.8718C45.4878 17.8718 30.6387 28.2856 31.0403 46.0326C31.4336 63.7483 44.9445 73.6257 44.9445 73.6257ZM29.9399 120.539C44.2067 131.744 42.7113 147.262 42.7113 147.262C42.7113 147.262 26.5942 151.535 12.6552 140.6C-1.28097 129.674 0.0330789 111.49 0.0330789 111.49C0.0330789 111.49 15.6393 109.331 29.9399 120.539ZM64.456 181.325C64.456 181.325 62.4867 165.852 46.0878 158.089C29.6841 150.35 14.9659 155.947 14.9659 155.947C14.9659 155.947 17.7137 173.993 33.6972 181.532C49.6806 189.071 64.456 181.325 64.456 181.325ZM66.1724 190.721C84.1217 193.119 90.6523 207.291 90.6523 207.291C90.6523 207.291 78.9339 219.19 61.4308 216.84C43.9408 214.498 35.8886 198.13 35.8886 198.13C35.8886 198.13 48.1996 188.318 66.1724 190.721ZM101.908 217.973C83.8111 217.759 72.7208 228.976 72.7208 228.976C72.7208 228.976 82.6355 244.253 100.288 244.507C117.926 244.709 128.134 231.483 128.134 231.483C128.134 231.483 119.997 218.199 101.908 217.973ZM40.9222 81.6409L49.4177 83.3314C48.737 86.8433 34.3951 170.361 161.079 231.314L157.387 239.13C24.2963 175.122 40.7491 82.57 40.9222 81.6409Z" fill="url(#paint0_linear)"/>
<defs>
<linearGradient id="paint0_linear" x1="223.814" y1="17.1407" x2="223.814" y2="244.509" gradientUnits="userSpaceOnUse">
<stop stop-color="#DCDDE0"/>
<stop offset="1" stop-color="#DCDDE0" stop-opacity="0"/>
</linearGradient>
</defs>
</svg>
